<svg xmlns="http://www.w3.org/2000/svg" viewBox="0 0 1417.32 425.2"><defs><style>.a,.c{fill:#fff;}.b{fill:none;}.c{fill-rule:evenodd;}.d{fill:#035b98;stroke:#fff;stroke-miterlimit:10;stroke-width:7px;}</style></defs><title>IPCA_SB_Logotipe</title><path class="a" d="M846.19,216.48H821.91V108.69h24.28Z"/><path class="a" d="M895,179.35v37.13H870.69V108.69h38q40.74,0,40.74,34.35,0,16.25-11.69,26.27t-31.23,10Zm0-52v33.6h9.55q19.4,0,19.39-17,0-16.62-19.39-16.62Z"/><path class="a" d="M1042.52,212.65q-11.8,5.72-30.82,5.71-24.8,0-39-14.58t-14.2-38.86q0-25.86,16-41.95t41.45-16.08q15.8,0,26.61,4v23.38a47.11,47.11,0,0,0-24.65-6.46q-15.2,0-24.51,9.54T984,163.19q0,15.63,8.8,24.91t23.67,9.29a50.5,50.5,0,0,0,26-6.92Z"/><path class="a" d="M1156.1,216.48h-26.46l-7.67-24h-38.33l-7.59,24h-26.31L1089,108.69h28.79Zm-39.69-42.62-11.58-36.23a47.27,47.27,0,0,1-1.8-9.69h-.6a41.26,41.26,0,0,1-1.88,9.39l-11.73,36.53Z"/><path class="a" d="M815.45,301.18a22.16,22.16,0,0,0,3.58,2.18,28.92,28.92,0,0,0,4,1.63,30.09,30.09,0,0,0,4.12,1,25.35,25.35,0,0,0,4,.34q7.35,0,11-2.84a9.76,9.76,0,0,0,3.65-8.17,10.88,10.88,0,0,0-.86-4.48,11.05,11.05,0,0,0-2.66-3.59,26.94,26.94,0,0,0-4.56-3.31q-2.75-1.65-6.49-3.72-4.14-2.26-7.1-4.27a25.77,25.77,0,0,1-4.83-4.1,13.92,13.92,0,0,1-2.75-4.53,16.49,16.49,0,0,1-.88-5.55,14.7,14.7,0,0,1,1.67-7,16.5,16.5,0,0,1,4.51-5.3,20.9,20.9,0,0,1,6.65-3.35,27.29,27.29,0,0,1,8.14-1.18A33.72,33.72,0,0,1,849.41,247v6.63A26.56,26.56,0,0,0,836,250.35a20.32,20.32,0,0,0-5.44.7,14.28,14.28,0,0,0-4.46,2,9.81,9.81,0,0,0-3,3.36,9.49,9.49,0,0,0-1.11,4.67,11.44,11.44,0,0,0,.75,4.35,10.2,10.2,0,0,0,2.39,3.45,23,23,0,0,0,4.32,3.23c1.79,1.06,4,2.29,6.57,3.67a78.42,78.42,0,0,1,7.08,4.22,27.7,27.7,0,0,1,5,4.28,16.15,16.15,0,0,1,3,4.74,15,15,0,0,1,1,5.57,16.81,16.81,0,0,1-1.58,7.46,14.64,14.64,0,0,1-4.42,5.35,20.12,20.12,0,0,1-6.77,3.2,32.32,32.32,0,0,1-8.61,1.08,31,31,0,0,1-3.65-.25,41.3,41.3,0,0,1-4.29-.72,39.84,39.84,0,0,1-4.12-1.13,14.53,14.53,0,0,1-3.18-1.42Z"/><path class="a" d="M881.38,310.11a14.32,14.32,0,0,1-6.49,1.48q-11.19,0-11.19-12.89V269.52h-8.11v-5h8.11V252.83l5.78-1.89v13.53h11.9v5h-11.9v28.27q0,4.69,1.53,6.77t5.18,2.07a9.33,9.33,0,0,0,5.19-1.62Z"/><path class="a" d="M921.11,310.65V302.8h-.18q-4.68,8.93-14.56,8.93-16.47,0-16.46-20.12V264.47h5.77v26.06q0,8.31,3,12.27t9,4a12.63,12.63,0,0,0,5.44-1.15,12.44,12.44,0,0,0,4.24-3.25,15.09,15.09,0,0,0,2.77-5,20.18,20.18,0,0,0,1-6.49V264.47h5.78v46.18Z"/><path class="a" d="M974.15,310.65v-8.12H974a16.39,16.39,0,0,1-6.56,6.79,19.29,19.29,0,0,1-9.68,2.41,18.89,18.89,0,0,1-7.87-1.6,16.91,16.91,0,0,1-6.06-4.62,21.47,21.47,0,0,1-3.9-7.31,31.6,31.6,0,0,1-1.38-9.7A33,33,0,0,1,940,278.29a23.75,23.75,0,0,1,4.29-7.94,19.26,19.26,0,0,1,6.67-5.14,20.2,20.2,0,0,1,8.68-1.83q10,0,14.3,8h.18V242.28h5.77v68.37Zm0-27.87a15.16,15.16,0,0,0-1-5.64,14.15,14.15,0,0,0-2.88-4.56,13.59,13.59,0,0,0-4.45-3.06,14.18,14.18,0,0,0-5.7-1.13,14.67,14.67,0,0,0-6.31,1.35,13.84,13.84,0,0,0-4.94,3.9,18.84,18.84,0,0,0-3.21,6.2,27.9,27.9,0,0,0-1.14,8.3,27.49,27.49,0,0,0,1,7.85,16.92,16.92,0,0,0,3,5.86,12.78,12.78,0,0,0,4.57,3.66,13.67,13.67,0,0,0,5.91,1.26,15.37,15.37,0,0,0,6.34-1.26,13.82,13.82,0,0,0,4.78-3.48,15.6,15.6,0,0,0,3-5.18,18.78,18.78,0,0,0,1.06-6.36Z"/><path class="a" d="M997.56,288.59a26,26,0,0,0,1.12,7.63,16.16,16.16,0,0,0,3.12,5.72,13.32,13.32,0,0,0,4.94,3.59,16.47,16.47,0,0,0,6.56,1.24,23.46,23.46,0,0,0,14.74-5.46V307a26.87,26.87,0,0,1-16,4.74,21.19,21.19,0,0,1-8.43-1.62,17.52,17.52,0,0,1-6.45-4.72,21.4,21.4,0,0,1-4.11-7.6,33.72,33.72,0,0,1-1.44-10.28,28.11,28.11,0,0,1,1.58-9.6,23.71,23.71,0,0,1,4.37-7.65,20.32,20.32,0,0,1,6.63-5.05,19.23,19.23,0,0,1,8.39-1.83,18.83,18.83,0,0,1,7.89,1.56,15.53,15.53,0,0,1,5.75,4.44,20.09,20.09,0,0,1,3.54,7,33,33,0,0,1,1.22,9.29v2.88Zm27.42-5q-.13-7.21-3.43-11.18a11.24,11.24,0,0,0-9.15-4,14.1,14.1,0,0,0-5.44,1,13,13,0,0,0-4.4,3,16.17,16.17,0,0,0-3.13,4.78,23.87,23.87,0,0,0-1.74,6.33Z"/><path class="a" d="M1073.41,310.65V284q0-15.65-11.36-15.65a13.16,13.16,0,0,0-5.59,1.19,13.49,13.49,0,0,0-4.45,3.32,15.71,15.71,0,0,0-2.93,5,18.37,18.37,0,0,0-1.06,6.29v26.43h-5.77V264.47H1048v8h.18q5.15-9.11,15.47-9.11,7.57,0,11.55,4.92t4,14.21v28.14Z"/><path class="a" d="M1112.92,310.11a14.32,14.32,0,0,1-6.49,1.48q-11.19,0-11.19-12.89V269.52h-8.12v-5h8.12V252.83l5.77-1.89v13.53h11.91v5H1101v28.27c0,3.13.52,5.39,1.54,6.77s2.75,2.07,5.18,2.07a9.33,9.33,0,0,0,5.19-1.62Z"/><path class="a" d="M1148.68,310.65V246h17.68a22.71,22.71,0,0,1,7.24,1.08,16.17,16.17,0,0,1,5.5,3,13.21,13.21,0,0,1,3.5,4.71,14.83,14.83,0,0,1,1.22,6.05,17.36,17.36,0,0,1-.77,5.23,15.64,15.64,0,0,1-2.21,4.44,14.42,14.42,0,0,1-3.54,3.47,17.58,17.58,0,0,1-4.76,2.33v.18a17.41,17.41,0,0,1,5.91,1.58,14.72,14.72,0,0,1,4.55,3.29,14.39,14.39,0,0,1,2.94,4.76,16.71,16.71,0,0,1,1,6,18.57,18.57,0,0,1-1.48,7.51,17.21,17.21,0,0,1-4.18,5.86,18.88,18.88,0,0,1-6.38,3.81,23.4,23.4,0,0,1-8.16,1.36Zm6-59.17v23h8.39a19.39,19.39,0,0,0,6-.85,13,13,0,0,0,4.56-2.49,10.88,10.88,0,0,0,2.91-3.92,12.8,12.8,0,0,0,1-5.18q0-10.52-13.08-10.51Zm0,28.36v25.35h11.14q7.17,0,11-3.36t3.85-9.54q0-12.45-16.91-12.45Z"/><path class="a" d="M1222.24,270.37a8.64,8.64,0,0,0-5.23-1.48,9,9,0,0,0-4.06.87,10.45,10.45,0,0,0-3.09,2.37,13.89,13.89,0,0,0-2.25,3.45,23.42,23.42,0,0,0-1.49,4.08,28.93,28.93,0,0,0-.81,4.29,35,35,0,0,0-.25,4.1v22.6h-5.73V264.47h5.73v9.87h.18a20.44,20.44,0,0,1,2-4.53,14.22,14.22,0,0,1,2.86-3.38,12.09,12.09,0,0,1,3.54-2.1,11.42,11.42,0,0,1,4-.72,15.6,15.6,0,0,1,2.5.18,9.5,9.5,0,0,1,2,.54Z"/><path class="a" d="M1257.24,310.65v-8.21h-.18a17,17,0,0,1-6.16,6.85,16.25,16.25,0,0,1-8.82,2.44,18.06,18.06,0,0,1-6-1,12.85,12.85,0,0,1-4.55-2.68,11.88,11.88,0,0,1-2.89-4.17,14,14,0,0,1-1-5.37q0-6.27,3.88-10t11.72-4.85l14-2q0-13.31-10.33-13.3a22.57,22.57,0,0,0-15,5.91V268a19.58,19.58,0,0,1,3.27-1.87,29.74,29.74,0,0,1,3.85-1.44,32.32,32.32,0,0,1,4.17-.95,27.48,27.48,0,0,1,4.18-.34q7.71,0,11.65,4.33t4,12.9v30Zm-11.91-22.42a36.17,36.17,0,0,0-5.32,1.13,10.86,10.86,0,0,0-3.65,1.83,6.68,6.68,0,0,0-2.12,2.84,11.3,11.3,0,0,0-.68,4.17,9,9,0,0,0,.65,3.43,7.77,7.77,0,0,0,1.9,2.73,8.69,8.69,0,0,0,3,1.78,12.06,12.06,0,0,0,4,.63,13.32,13.32,0,0,0,10.08-4.42,15.26,15.26,0,0,0,2.93-5,18.26,18.26,0,0,0,1.06-6.27v-4.56Z"/><path class="a" d="M1308.06,310.65V284q0-15.65-11.36-15.65a13.19,13.19,0,0,0-5.59,1.19,13.35,13.35,0,0,0-4.44,3.32,15.55,15.55,0,0,0-2.94,5,18.37,18.37,0,0,0-1.06,6.29v26.43h-5.77V264.47h5.77v8h.18q5.14-9.11,15.47-9.11,7.58,0,11.55,4.92t4,14.21v28.14Z"/><path class="a" d="M1358.44,308.57a24.17,24.17,0,0,1-12.45,3.2,21.37,21.37,0,0,1-8.93-1.71,19.52,19.52,0,0,1-6.76-4.89,21.81,21.81,0,0,1-4.29-7.4,28,28,0,0,1-1.48-9.27,29.81,29.81,0,0,1,1.57-9.76,23.54,23.54,0,0,1,4.6-8,21.77,21.77,0,0,1,7.4-5.39,23.88,23.88,0,0,1,10-2,24.44,24.44,0,0,1,10.46,2.21v6.14a19.35,19.35,0,0,0-10.91-3.34,16.42,16.42,0,0,0-7.3,1.56,15.5,15.5,0,0,0-5.39,4.24,18.89,18.89,0,0,0-3.34,6.26,24.66,24.66,0,0,0-1.15,7.6,25.38,25.38,0,0,0,1,7.08,17.4,17.4,0,0,0,3,6,14.34,14.34,0,0,0,5.07,4.12,15.83,15.83,0,0,0,7.21,1.54,19.2,19.2,0,0,0,11.73-3.88Z"/><path class="a" d="M1400.7,310.65V283.5q0-7.75-2.8-11.44t-8.7-3.67a13,13,0,0,0-9.74,4.37,15.94,15.94,0,0,0-3,5.17,19.74,19.74,0,0,0-1.12,6.88v25.84h-5.78V242.28h5.78v30.17h.18q5.4-9.07,15.51-9.07,7.71,0,11.59,4.74t3.88,14v28.55Z"/><polygon class="a" points="227.71 288.1 227.71 142.5 268.04 142.5 268.04 288.1 227.71 288.1 227.71 288.1"/><polygon class="a" points="289.21 288.1 289.21 142.5 400.12 142.5 400.12 170.73 329.54 170.73 329.54 200.77 394.47 200.77 394.47 229.01 329.54 229.01 329.54 259.86 400.12 259.86 400.12 288.1 289.21 288.1 289.21 288.1"/><polygon class="a" points="422.72 288.1 422.72 142.5 533.6 142.5 533.6 170.73 463.04 170.73 463.04 200.77 527.95 200.77 527.95 229.01 463.04 229.01 463.04 259.86 533.6 259.86 533.6 288.1 422.72 288.1 422.72 288.1"/><polygon class="a" points="556.18 288.1 556.18 142.5 667.1 142.5 667.1 170.73 596.54 170.73 596.54 200.77 661.45 200.77 661.45 229.01 596.54 229.01 596.54 259.86 667.1 259.86 667.1 288.1 556.18 288.1 556.18 288.1"/><rect class="b" x="7.86" y="117.07" width="659.24" height="192.18"/><path class="a" d="M98.35,144.14c6.43-5,14.52-.85,19.93,3.75A193.12,193.12,0,0,1,135,162.14l.94.54a278.62,278.62,0,0,1,38.61,43.74c1.77,2.72,3.34,5.8,2.35,9.41-3.65,9.12-11.07,16.4-17.55,24.36-14,15.1-28.82,29.71-45.39,41.36-3.35,2.37-7.87,4.56-11.88,2.68C89.92,277.85,79.64,267.39,69,257.87,56.59,246.39,44.17,233,34.79,219.05a11.38,11.38,0,0,1-1.75-7c1.21-4.83,4.51-8.8,7.64-12.87,11.08-14.12,24.66-27.52,38.37-39.76a10.56,10.56,0,0,1,1.4-1.3c5.89-5.09,11.74-9.6,17.9-14Zm18.85-14.7-7.28-10.32a14,14,0,0,0-3-1.71c-2.15-.93-4.46.2-6.21,1.53L87.54,136.1C66.41,162.27,41.4,186.71,14.1,205.44c-2.16,1.69-5.36,3.33-6,6.11-.72,2.5.58,4.56,2.13,6.12A358,358,0,0,1,71.55,271c3.31,3.47,6,6.92,9.21,10.18,5.44,7.24,11.83,14.53,16.83,22.3,1.57,1.64,1.84,4.33,4.29,5.13,1.92.66,4.29,1.12,6.12,0l1.82-1.83a364.76,364.76,0,0,1,83.34-84c3.21-2.87,9.33-3.93,9.42-9.25a8.46,8.46,0,0,0-3.76-6.21l-.53-.08A323.49,323.49,0,0,1,152,168.88l-16-16.71C129.49,145,123.19,137,117.2,129.44Zm-16.48,18.63c6.57-4.47,12.47,1.79,17.56,5.37,19.7,15.85,38.28,34,52.44,54.48,1.79,2.65,2.6,6.75,1,9.75-3.68,6.12-8.63,11.71-13.32,17.38v.31c-11.71,12.47-24.08,25.28-37.44,35.84-6.52,4-12.51,12.63-20.91,7.26a302,302,0,0,1-52.95-50c-2.62-4.1-6.73-7.45-8.56-12.1-2.56-6.29,3.07-10.81,6.3-15.55,15.82-19.51,35.46-38.64,55.88-52.75Zm4.15,12.86-1.78,5.72-8.94,25.6c2.24.23,5,0,7.21.23v.21l-1.31,28.95.23.31a37.94,37.94,0,0,0,9.34-.08v-.46l-1.17-28.08.18-1,7.86-.13c-3.92-10.36-7.73-20.83-11.39-31.32ZM74.46,201c-5,2.51-12.39,6.31-11.58,13.18C64,218,68,220.4,71.24,222c17.77,7.83,41.37,8.09,60.14,2.25,4.63-1.79,10.85-4.38,11.7-10-.05-4.69-5-7.65-8.58-9.44v-.22a15.22,15.22,0,0,1,4-1.07v-.13c-6.29-1.12-12.35-2.77-18.44-4.38,1.17,2.67,2,5.49,3,8.27a33,33,0,0,1,5.68-1.3c3.21,1.25,7.81,3,8.27,7.05.35,3.75-3.75,5.58-6.35,7.11A73.58,73.58,0,0,1,87,221.73c-4-1.25-9.69-2.86-10.18-7.91,2.82-6.64,10.1-8,16.18-9.64-3.13-2-6.31-3.8-9.34-6-3.27.18-6.26,1.61-9.2,2.9Zm25.41,28.87c-.53,10.28-.66,19.8-1.42,30.1a56.31,56.31,0,0,0,13,.1l-1.29-28.74-.23-1.36a69.22,69.22,0,0,1-10-.1Z"/><path class="c" d="M137.82,288.71a6.77,6.77,0,1,0,6.77,6.76A6.54,6.54,0,0,0,137.82,288.71Zm0,12v0a5.2,5.2,0,0,1,0-10.37,5.21,5.21,0,0,1,0,10.39Zm3-6.65c0-1.67-1.1-2.19-3-2.19h-2.73v7.28h1.56v-3.06h.74l1.68,3.06H141l-1.88-3.2A1.7,1.7,0,0,0,140.84,294Zm-2.76.79h-1.39v-1.76h1.1c.59,0,1.4.06,1.4.81S138.78,294.82,138.08,294.82Z"/><line class="d" x1="741.16" y1="90.29" x2="741.16" y2="336.04"/></svg>