<svg xmlns="http://www.w3.org/2000/svg" viewBox="0 0 1134.48493 202.19823"><defs><style>.a,.b,.c,.d{isolation:isolate;}.a{font-size:124.29px;font-family:LeelawadeeUI-Bold, Leelawadee UI;font-weight:700;}.a,.c,.d,.e,.f,.g{fill:#fff;}.c,.d{font-size:74.58px;font-family:LeelawadeeUI-Semilight, Leelawadee UI;font-weight:300;}.c{letter-spacing:-0.03em;}.f{fill-rule:evenodd;}.g{stroke:#fff;stroke-miterlimit:10;stroke-width:7px;}</style></defs><title>IPCA_SB_Logotipe</title><text class="a" transform="translate(647.31397 105.6582)">IPCA</text><g class="b"><text class="c" transform="translate(647.31397 181.69824)">S</text><text class="d" transform="translate(683.25397 181.69824)">tudent Branch</text></g><polygon class="e" points="177.494 163.488 177.494 45.928 210.054 45.928 210.054 163.488 177.494 163.488 177.494 163.488"/><polygon class="e" points="227.144 163.488 227.144 45.928 316.704 45.928 316.704 68.718 259.714 68.718 259.714 92.978 312.134 92.978 312.134 115.778 259.714 115.778 259.714 140.688 316.704 140.688 316.704 163.488 227.144 163.488 227.144 163.488"/><polygon class="e" points="334.944 163.488 334.944 45.928 424.484 45.928 424.484 68.718 367.504 68.718 367.504 92.978 419.914 92.978 419.914 115.778 367.504 115.778 367.504 140.688 424.484 140.688 424.484 163.488 334.944 163.488 334.944 163.488"/><polygon class="e" points="442.714 163.488 442.714 45.928 532.264 45.928 532.264 68.718 475.294 68.718 475.294 92.978 527.714 92.978 527.714 115.778 475.294 115.778 475.294 140.688 532.264 140.688 532.264 163.488 442.714 163.488 442.714 163.488"/><path class="e" d="M82.94205,70.57c5.19-4,11.72-.68,16.09,3a156.60237,156.60237,0,0,1,13.52,11.54l.76.44a223.85055,223.85055,0,0,1,31.14,35.31c1.43,2.2,2.7,4.69,1.9,7.6-2.9,7.37-8.9,13.25-14.14,19.67-11.32,12.19-23.27,24-36.64,33.4-2.71,1.91-6.36,3.68-9.6,2.16-9.84-5.16-18.15-13.6-26.76-21.29-10-9.26-20-20.05-27.6-31.34a9.25,9.25,0,0,1-1.41-5.62c1-3.9,3.64-7.1,6.17-10.39,9-11.4,19.91-22.22,31-32.1a7.729,7.729,0,0,1,1.13-1.05c4.75-4.11,9.48-7.75,14.46-11.33Zm15.22-11.86-5.88-8.33a10.84989,10.84989,0,0,0-2.42-1.38c-1.73-.75-3.6.15-5,1.23l-10.64,13.85c-17.06,21.13-37.26,40.87-59.3,56-1.74,1.36-4.33,2.69-4.87,4.94-.58,2,.47,3.68,1.72,4.93a290.12967,290.12967,0,0,1,49.54,43c2.66,2.8,4.83,5.59,7.43,8.22,4.39,5.84,9.56,11.73,13.59,18,1.27,1.33,1.49,3.5,3.47,4.15,1.55.54,3.46.9,4.94,0l1.47-1.48a294.34965,294.34965,0,0,1,67.24-67.82c2.59-2.31,7.53-3.17,7.6-7.47a6.8,6.8,0,0,0-3-5l-.43-.07a260.53061,260.53061,0,0,1-37.4-30.92l-12.92-13.49c-5.23-5.8-10.32-12.22-15.15-18.35Zm-13.31,15c5.3-3.61,10.07,1.44,14.18,4.33,15.9,12.8,30.91,27.45,42.34,44,1.44,2.13,2.09,5.45.8,7.86-3,5-7,9.46-10.75,14v.25c-9.46,10.07-19.44,20.41-30.23,28.93-5.27,3.21-10.1,10.21-16.88,5.87a243.64981,243.64981,0,0,1-42.75-40.24c-2.13-3.31-5.44-6-6.92-9.77-2.06-5.08,2.48-8.73,5.09-12.56,12.77-15.75,28.63-31.2,45.12-42.59Zm3.35,10.39-1.44,4.61-7.22,20.67c1.81.18,4,0,5.82.18v.17l-1,23.38.18.25a30.70021,30.70021,0,0,0,7.54-.06v-.37l-.94-22.67.14-.77,6.35-.11c-3.17-8.36-6.24-16.81-9.2-25.28Zm-24.56,32.38c-4,2-10,5.09-9.34,10.64.87,3,4.15,5,6.74,6.24,14.41,6.35,33.41,6.58,48.56,1.86,3.74-1.45,8.76-3.54,9.45-8.12,0-3.79-4-6.17-6.93-7.62v-.18a12.77021,12.77021,0,0,1,3.2-.86v-.1c-5.08-.91-10-2.24-14.89-3.54,1,2.16,1.63,4.43,2.42,6.67a27.48017,27.48017,0,0,1,4.58-1c2.6,1,6.31,2.46,6.68,5.7.28,3-3,4.51-5.13,5.74a59.43994,59.43994,0,0,1-35.21,1.36c-3.2-1-7.82-2.3-8.22-6.38,2.27-5.37,8.15-6.48,13.06-7.79-2.52-1.62-5.09-3.06-7.53-4.87-2.64.15-5.06,1.3-7.44,2.34Zm20.52,23.31c-.43,8.3-.53,16-1.15,24.31a46.00112,46.00112,0,0,0,10.5.07l-1.06-23.16-.18-1.1a56.77109,56.77109,0,0,1-8.12-.08Z" transform="translate(-9.88809 -23.32178)"/><path class="f" d="M114.80205,187.31a5.47,5.47,0,1,0,5.47,5.47l0-.02a5.28,5.28,0,0,0-5.10361-5.45069Q114.98529,187.3033,114.80205,187.31Zm0,9.66h0a4.2,4.2,0,1,1,3.91066-4.47064q.009.13512.00934.27063a4,4,0,0,1-3.79425,4.19568Q114.865,196.96883,114.80205,196.97Zm2.45-5.37c0-1.35-.89-1.77-2.42-1.77h-2.19v5.88h1.25v-2.47h.6l1.35,2.47h1.5l-1.51-2.58a1.38,1.38,0,0,0,1.42-1.53Zm-2.24.64h-1.12v-1.42h.89c.48,0,1.13,0,1.13.65s-.33.77-.9.77Z" transform="translate(-9.88809 -23.32178)"/><line class="g" x1="592.07398" y1="3.76822" x2="592.07398" y2="202.19823"/></svg>